<svg width="109" height="39" viewBox="0 0 109 39" fill="none" xmlns="http://www.w3.org/2000/svg">
<g id="Layer_1" clip-path="url(#clip0_774_2176)">
<path id="Vector" d="M12.8179 30.5268C12.0233 30.5268 11.2057 30.4594 10.367 30.3264C9.5265 30.1935 8.7453 29.9258 8.02346 29.5232C7.30162 29.1206 6.71764 28.5327 6.27535 27.7556C5.83305 26.9786 5.61095 25.9544 5.61095 24.6793V14.4017H0.824219V9.81621H2.17216C2.95336 9.81621 3.57563 9.78438 4.03707 9.72072C4.49851 9.65706 4.84507 9.49416 5.07292 9.2339C5.30077 8.97363 5.44629 8.56171 5.5133 8.00186C5.5784 7.44201 5.61095 6.67058 5.61095 5.68945V3.12988H11.6863V9.81621H17.7233V14.4017H11.6863V22.9979C11.6863 23.876 11.7935 24.5894 12.0079 25.138C12.2224 25.6866 12.7604 25.96 13.6201 25.96C14.049 25.96 14.4568 25.9226 14.8417 25.8458C15.2265 25.769 15.5157 25.6923 15.711 25.6174V30.0681C15.4372 30.1823 15.0523 30.2871 14.5583 30.3826C14.0624 30.4781 13.4842 30.5249 12.8198 30.5249L12.8179 30.5268Z" fill="#1A1A1A"/>
<path id="Vector_2" d="M101.999 30.5268C101.204 30.5268 100.386 30.4594 99.5478 30.3264C98.7073 30.1935 97.9261 29.9258 97.2042 29.5232C96.4824 29.1206 95.8984 28.5327 95.4561 27.7556C95.0138 26.9786 94.7917 25.9544 94.7917 24.6793V14.4017H90.005V9.81621H91.3529C92.1341 9.81621 92.7564 9.78438 93.2179 9.72072C93.6793 9.65706 94.0259 9.49416 94.2537 9.2339C94.4816 8.97363 94.6271 8.56171 94.6941 8.00186C94.7592 7.44201 94.7917 6.67058 94.7917 5.68945V3.12988H100.867V9.81621H106.904V14.4017H100.867V22.9979C100.867 23.876 100.974 24.5894 101.189 25.138C101.403 25.6866 101.941 25.96 102.801 25.96C103.23 25.96 103.638 25.9226 104.022 25.8458C104.407 25.769 104.696 25.6923 104.892 25.6174V30.0681C104.618 30.1823 104.233 30.2871 103.739 30.3826C103.243 30.4781 102.665 30.5249 102.001 30.5249L101.999 30.5268Z" fill="#1A1A1A"/>
<path id="Vector_3" d="M52.2606 17.4036V30.1059H46.2235V19.1037C46.2235 18.263 46.1125 17.4953 45.8923 16.8007C45.6702 16.106 45.2719 15.5499 44.6994 15.1286C44.1269 14.7092 43.2998 14.4995 42.218 14.4995C41.2817 14.4995 40.4699 14.7092 39.7863 15.1286C39.1028 15.5499 38.5782 16.136 38.2144 16.8868C37.8487 17.6376 37.6668 18.5045 37.6668 19.4857V30.1059H31.6106V9.81849H37.6668V12.9136C38.3771 11.9474 39.2675 11.1629 40.3339 10.5637C41.6685 9.81288 43.1504 9.43652 44.7779 9.43652C46.4054 9.43652 47.8874 9.77168 48.9883 10.4401C50.0874 11.1086 50.9088 12.0373 51.4487 13.2281C51.9887 14.419 52.2606 15.8102 52.2606 17.4036Z" fill="#1A1A1A"/>
<path id="Vector_4" d="M74.4805 28.4151C73.5231 28.065 72.4069 27.8272 71.1298 27.6999L63.8233 26.9921C62.8334 26.9041 62.1537 26.7318 61.7822 26.4772C61.4108 26.2226 61.227 25.9174 61.227 25.5597C61.227 25.2021 61.3916 24.8913 61.7248 24.6235C61.7248 24.6217 61.7286 24.6198 61.7305 24.6198C63.0881 25.0561 64.639 25.2733 66.3832 25.2733C68.3879 25.2733 70.0518 24.9418 71.3748 24.2809C72.696 23.6181 73.7548 22.7099 74.5494 21.5584C75.344 20.405 75.9433 19.0906 76.3454 17.6133L78.5147 9.81849H73.1823L72.92 12.2077C72.8358 12.1047 72.7438 12.0017 72.6443 11.9006C71.9205 11.1629 70.9708 10.5675 69.7914 10.1143C68.6139 9.66308 67.3138 9.43652 65.895 9.43652C64.0186 9.43652 62.3432 9.77355 60.8651 10.4495C59.387 11.1236 58.2209 12.0672 57.367 13.2768C56.5149 14.4864 56.0879 15.8869 56.0879 17.4785C56.0879 19.07 56.5053 20.45 57.3382 21.6146C57.7135 22.1426 58.1635 22.6163 58.6881 23.0339C58.5349 23.1312 58.3703 23.2436 58.1979 23.3728C57.6771 23.7622 57.2138 24.2509 56.8117 24.8445C56.4077 25.4361 56.2047 26.0877 56.2047 26.8011C56.2047 27.947 56.6815 28.8589 57.6312 29.533C58.5828 30.2089 59.7795 30.6152 61.227 30.7556L69.0791 31.5402C69.822 31.6151 70.4769 31.7424 71.0417 31.9221C71.6084 32.1 71.8918 32.4764 71.8918 33.0493C71.8918 33.4425 71.6735 33.7945 71.237 34.0997C70.8004 34.4049 70.1705 34.6371 69.3433 34.7963C68.5162 34.9554 67.5225 35.0359 66.3641 35.0359C64.7232 35.0359 63.3848 34.8693 62.349 34.5379C61.3131 34.2083 60.7962 33.7047 60.7962 33.0287C60.7962 32.7497 60.8325 32.5157 60.9034 32.3322C60.9742 32.1468 61.0432 32.0101 61.1083 31.9221L55.5997 31.1376C55.4312 31.4053 55.2914 31.7274 55.1804 32.1038C55.0693 32.4782 55.0138 32.9014 55.0138 33.3732C55.0138 35.0415 55.9865 36.3766 57.9337 37.3764C59.8809 38.3744 62.6324 38.8743 66.1879 38.8743C68.5966 38.8743 70.6492 38.6328 72.3418 38.1497C74.0343 37.6648 75.321 36.9608 76.1999 36.0377C77.0787 35.1146 77.5191 33.9967 77.5191 32.6861C77.5191 31.5514 77.251 30.6452 76.7168 29.9636C76.1826 29.2821 75.4378 28.7671 74.4805 28.4151ZM62.573 15.5405C62.9521 15.0125 63.4691 14.6043 64.1277 14.3179C64.7845 14.0314 65.5235 13.8872 66.3449 13.8872C67.1664 13.8872 67.959 14.0276 68.61 14.3085C69.261 14.5875 69.7684 14.9901 70.1341 15.5106C70.4979 16.033 70.6817 16.664 70.6817 17.4036C70.6817 18.1432 70.4979 18.7948 70.1341 19.3228C69.7684 19.8508 69.261 20.2515 68.61 20.5267C67.959 20.8001 67.2046 20.9368 66.3449 20.9368C65.4853 20.9368 64.7289 20.8001 64.0779 20.5267C63.427 20.2515 62.9196 19.8583 62.5539 19.3415C62.1901 18.8266 62.0082 18.1993 62.0082 17.4597C62.0082 16.7201 62.1958 16.0686 62.573 15.5405Z" fill="#1A1A1A"/>
<path id="Vector_5" d="M86.983 14.0503C86.9466 14.23 86.9141 14.4042 86.8853 14.5839C86.7513 15.3235 86.6077 16.0706 86.4641 16.7896C86.3128 17.5535 86.1578 18.3493 86.0218 19.1301C85.8265 20.2479 85.6753 21.4088 85.5317 22.5341C85.2617 24.5919 84.9841 26.7245 84.4403 28.7074C84.178 29.6717 83.1077 30.063 82.2671 30.1079H82.1331C81.6601 30.1079 81.2025 29.9806 80.743 29.7185C78.9623 28.7093 78.8226 26.8593 78.8972 25.015C79.0026 22.3712 79.6038 19.7723 80.2394 17.2109C80.6396 15.6044 81.0436 14.039 81.6046 12.5486C81.6487 12.4381 81.6908 12.3258 81.7348 12.2116C82.1963 10.9702 82.8262 9.2663 84.3694 8.99855C84.4996 8.97795 84.6317 8.96484 84.7773 8.96484C85.3785 8.96484 86.0678 9.18766 86.5292 9.82427C87.5459 11.2248 87.253 12.7321 86.9983 14.0559L86.9868 14.0521L86.983 14.0503Z" fill="#1A1A1A"/>
<path id="Vector_6" d="M27.6611 14.0503C27.6247 14.23 27.5922 14.4042 27.5634 14.5839C27.4294 15.3235 27.2858 16.0706 27.1422 16.7896C26.9909 17.5535 26.8359 18.3493 26.6999 19.1301C26.5046 20.2479 26.3534 21.4088 26.2098 22.5341C25.9398 24.5919 25.6622 26.7245 25.1184 28.7074C24.8561 29.6717 23.7858 30.063 22.9452 30.1079H22.8112C22.3382 30.1079 21.8806 29.9806 21.4211 29.7185C19.6405 28.7093 19.5007 26.8593 19.5753 25.015C19.6807 22.3712 20.2819 19.7723 20.9175 17.2109C21.3177 15.6044 21.7217 14.039 22.2827 12.5486C22.3268 12.4381 22.3689 12.3258 22.4129 12.2116C22.8744 10.9702 23.5043 9.2663 25.0475 8.99855C25.1777 8.97795 25.3098 8.96484 25.4554 8.96484C26.0566 8.96484 26.7459 9.18766 27.2073 9.82427C28.224 11.2248 27.9311 12.7321 27.6764 14.0559L27.6649 14.0521L27.6611 14.0503Z" fill="#1A1A1A"/>
<path id="Vector_7" d="M89.041 5.48817C88.9912 5.98061 88.8112 6.41688 88.5068 6.78199C88.2904 7.06847 87.9917 7.28005 87.6356 7.4055C87.2833 7.56091 86.9118 7.63955 86.5251 7.63955C86.1383 7.63955 85.7285 7.56091 85.3111 7.40176C84.3385 7.02728 83.5496 6.30453 83.1992 5.46383C82.8814 4.70738 82.8431 3.99774 83.0805 3.23006C83.1246 3.08214 83.1916 2.96418 83.2567 2.85183L83.3179 2.74511C83.5132 2.41182 83.6817 2.12534 83.9919 1.8501C84.0359 1.81265 84.0781 1.77146 84.1259 1.73401C84.4208 1.46252 84.752 1.15544 85.2537 1.06931C85.7075 0.990673 86.2187 0.953225 86.8639 1.19664C87.3828 1.39698 87.8232 1.71716 88.2196 2.18152C88.7021 2.74511 88.8648 3.4304 88.9969 3.98463C89.0907 4.3872 89.1405 5.00696 89.041 5.48817Z" fill="#1A1A1A"/>
<path id="Vector_8" d="M29.7191 5.48817C29.6693 5.98061 29.4893 6.41688 29.1849 6.78199C28.9685 7.06847 28.6698 7.28005 28.3137 7.4055C27.9614 7.56091 27.5899 7.63955 27.2032 7.63955C26.8164 7.63955 26.4066 7.56091 25.9892 7.40176C25.0166 7.02728 24.2277 6.30453 23.8773 5.46383C23.5595 4.70738 23.5212 3.99774 23.7586 3.23006C23.8027 3.08214 23.8697 2.96418 23.9348 2.85183L23.996 2.74511C24.1913 2.41182 24.3598 2.12534 24.67 1.8501C24.714 1.81265 24.7562 1.77146 24.804 1.73401C25.0989 1.46252 25.4301 1.15544 25.9318 1.06931C26.3856 0.990673 26.8968 0.953225 27.542 1.19664C28.0609 1.39698 28.5013 1.71716 28.8977 2.18152C29.3802 2.74511 29.5429 3.4304 29.675 3.98463C29.7688 4.3872 29.8186 5.00696 29.7191 5.48817Z" fill="#1A1A1A"/>
</g>
<defs>
<clipPath id="clip0_774_2176">
<rect width="108.054" height="37.9198" fill="white" transform="translate(0.824219 0.95459)"/>
</clipPath>
</defs>
</svg>
